<?xml version="1.0" standalone="no"?>
<!DOCTYPE svg PUBLIC "-//W3C//DTD SVG 20010904//EN"
 "http://www.w3.org/TR/2001/REC-SVG-20010904/DTD/svg10.dtd">
<svg version="1.0" xmlns="http://www.w3.org/2000/svg"
 width="700.000000pt" height="700.000000pt" viewBox="0 0 700.000000 700.000000"
 preserveAspectRatio="xMidYMid meet">
<metadata>
Created by potrace 1.14, written by Peter Selinger 2001-2017
</metadata>
<g transform="translate(0.000000,700.000000) scale(0.100000,-0.100000)"
fill="#000000" stroke="none">
<path d="M2426 5925 l-1076 -1075 396 -396 396 -397 680 680 680 680 680 -680
680 -680 395 395 396 396 -1076 1076 -1076 1077 -1075 -1076z"/>
<path d="M3096 3901 l-398 -399 401 -401 402 -402 402 400 402 401 -400 400
c-220 220 -402 400 -405 400 -3 0 -184 -180 -404 -399z"/>
<path d="M396 3896 l-396 -396 396 -396 396 -396 396 396 395 396 -396 396
-395 395 -396 -395z"/>
<path d="M5813 3895 l-396 -396 396 -395 395 -396 396 396 396 396 -396 396
-395 395 -396 -396z"/>
<path d="M1746 2546 l-396 -396 1076 -1075 1076 -1075 1075 1076 1076 1076
-396 395 -395 395 -681 -680 -680 -679 -679 679 -680 680 -396 -396z"/>
</g>
</svg>
